<svg width="42" height="42" viewBox="0 0 42 42" fill="none" xmlns="http://www.w3.org/2000/svg">
<path d="M37.5221 30.5423C36.754 31.8725 35.0529 32.3284 33.7226 31.5603L5.68998 15.3757C4.35967 14.6076 3.90387 12.9065 4.67193 11.5762L37.5221 30.5423Z" fill="white"/>
<path d="M37.522 30.5434L4.67188 11.5773C5.4834 10.1717 7.28076 9.69011 8.68639 10.5016L36.4464 26.5289C37.852 27.3404 38.3335 29.1377 37.522 30.5434Z" fill="black"/>
<path d="M20.7687 35.782L33.6527 28.3421L38.2247 30.9819C37.7726 31.7475 37.1269 32.3997 36.3303 32.8596L23.3937 40.3283L23.2405 40.4135C21.6448 41.2653 19.7172 41.2368 18.1437 40.3283L5.20706 32.8596C4.40167 32.3946 3.75006 31.7334 3.29727 30.9569L7.85453 28.3255L20.7687 35.782ZM18.1437 1.35962C19.768 0.421794 21.7693 0.421794 23.3937 1.35962L36.3303 8.82833C37.1364 9.29381 37.7885 9.95538 38.2413 10.733L33.6854 13.3637L20.7687 5.90594L7.83208 13.3753V13.3855L3.28125 10.758C3.73459 9.96949 4.39221 9.2988 5.20706 8.82833L18.1437 1.35962Z" fill="black"/>
<path d="M38.2842 10.7344C38.7436 11.5233 38.9982 12.4314 38.9982 13.376V28.3134L38.995 28.489C38.9652 29.3813 38.7089 30.2361 38.2682 30.9826L33.6956 28.3429L33.7482 28.3134V13.376L33.7283 13.3645L38.2842 10.7344ZM7.875 13.3863V28.3134L7.89744 28.3262L3.34021 30.9576C2.87989 30.168 2.625 29.2589 2.625 28.3134V13.376C2.625 12.4413 2.87325 11.5419 3.32355 10.7587L7.875 13.3863Z" fill="white"/>
</svg>
