<svg width="13" height="17" viewBox="0 0 13 17" fill="none" xmlns="http://www.w3.org/2000/svg">
<path d="M6.5 11.9C7.47404 11.8989 8.40786 11.5104 9.09661 10.8199C9.78536 10.1294 10.1728 9.1932 10.1739 8.21667V3.68333C10.1739 2.70645 9.78684 1.76958 9.09785 1.07882C8.40886 0.388064 7.47438 0 6.5 0C5.52562 0 4.59114 0.388064 3.90215 1.07882C3.21316 1.76958 2.82609 2.70645 2.82609 3.68333V8.21667C2.82721 9.1932 3.21464 10.1294 3.90339 10.8199C4.59214 11.5104 5.52596 11.8989 6.5 11.9ZM4.52174 3.68333C4.52174 3.15732 4.73016 2.65285 5.10116 2.28091C5.47215 1.90896 5.97533 1.7 6.5 1.7C7.02467 1.7 7.52785 1.90896 7.89884 2.28091C8.26984 2.65285 8.47826 3.15732 8.47826 3.68333V8.21667C8.47826 8.74268 8.26984 9.24715 7.89884 9.6191C7.52785 9.99104 7.02467 10.2 6.5 10.2C5.97533 10.2 5.47215 9.99104 5.10116 9.6191C4.73016 9.24715 4.52174 8.74268 4.52174 8.21667V3.68333ZM7.34783 14.6781V16.15C7.34783 16.3754 7.2585 16.5916 7.0995 16.751C6.9405 16.9104 6.72486 17 6.5 17C6.27514 17 6.05949 16.9104 5.9005 16.751C5.7415 16.5916 5.65217 16.3754 5.65217 16.15V14.6781C4.08937 14.4698 2.65505 13.7001 1.61555 12.5117C0.576046 11.3234 0.00199762 9.79725 0 8.21667C0 7.99123 0.0893242 7.77503 0.248322 7.61563C0.407321 7.45622 0.622969 7.36667 0.847826 7.36667C1.07268 7.36667 1.28833 7.45622 1.44733 7.61563C1.60633 7.77503 1.69565 7.99123 1.69565 8.21667C1.69565 9.49413 2.20182 10.7193 3.10281 11.6226C4.0038 12.5259 5.22581 13.0333 6.5 13.0333C7.77419 13.0333 8.9962 12.5259 9.89719 11.6226C10.7982 10.7193 11.3043 9.49413 11.3043 8.21667C11.3043 7.99123 11.3937 7.77503 11.5527 7.61563C11.7117 7.45622 11.9273 7.36667 12.1522 7.36667C12.377 7.36667 12.5927 7.45622 12.7517 7.61563C12.9107 7.77503 13 7.99123 13 8.21667C12.998 9.79725 12.424 11.3234 11.3844 12.5117C10.3449 13.7001 8.91063 14.4698 7.34783 14.6781Z" fill="white"/>
</svg>
